<svg width="1024" height="1024" viewBox="0 0 1024 1024" fill="none" xmlns="http://www.w3.org/2000/svg">
<path d="M890.752 596.437L710.379 803.349C706.325 808 700.459 810.667 694.293 810.667H562.56C557.461 810.667 552.533 812.48 548.672 815.808L411.328 933.547C407.467 936.853 402.539 938.667 397.44 938.667H362.667C350.891 938.667 341.333 929.109 341.333 917.333V832C341.333 820.224 331.776 810.667 320 810.667H149.333C137.557 810.667 128 801.109 128 789.333V340.117C128 336.789 128.768 333.525 130.261 330.56L215.189 161.109C218.816 153.899 226.197 149.333 234.261 149.333H874.667C886.443 149.333 896 158.891 896 170.667V582.421C896 587.584 894.144 592.555 890.752 596.437Z" fill="#8343C8"/>
<path d="M832 562.539C796.437 602.581 760.896 642.624 725.333 682.667C675.563 682.667 625.771 682.667 576 682.667C526.229 725.333 476.437 768 426.667 810.667C426.667 768 426.667 725.333 426.667 682.667C369.771 682.496 312.896 682.325 256 682.155C256 525.867 256 369.6 256 213.333C448 213.333 640 213.333 832 213.333C832 329.728 832 446.123 832 562.539Z" fill="#FAFAFA"/>
<path d="M512 341.333H448V554.667H512V341.333Z" fill="#8343C8"/>
<path d="M704 341.333H640V554.667H704V341.333Z" fill="#8343C8"/>
</svg>
